<svg xmlns="http://www.w3.org/2000/svg" version="1.1" xmlns:xlink="http://www.w3.org/1999/xlink" xmlns:svgjs="http://svgjs.dev/svgjs" width="100%" height="100%" viewBox="0 0 1000 600"><rect width="1000" height="600" x="0" y="0" fill="#1c173e"/><g><rect width="333.3333333333333" height="333.3333333333333" rx="13.333333333333334" ry="13.333333333333334" y="233.88412305271626" fill="#ffffff" transform="matrix(0.5905643503676802,0,0,0.5905643503676802,0,63.448956617191484)" x="211.66183471679688"/><path d="M376.94216280805927 341.5555470618676L376.94216280805927 341.5555470618676Q375.3773750892623 338.97501994665845 371.42422716809074 338.97501994665845Q367.4710792469193 338.97501994665845 364.0120748158942 339.9633069269513Q360.55307038486916 340.9515939072442 355.8038023962396 342.73600095499523L355.8038023962396 342.73600095499523Q348.0896734667313 345.89302880870855 343.3404054781017 348.6657228367525L343.3404054781017 348.6657228367525Q325.55123983283 358.1642588140117 310.15043438993274 370.90217989334207Q294.7221765309163 383.6401009726724 293.9260564634581 389.98160909621834L293.9260564634581 389.98160909621834Q293.54172263778867 394.92304399768267 299.27927760671116 398.08007185139604L299.27927760671116 398.08007185139604Q304.2207125081755 401.04493279227466 310.72693512843693 403.70781715584155Q317.26061016481754 406.37070151940844 320.22547110569616 407.77077474149L320.22547110569616 407.77077474149Q336.0380627903821 415.677070583833 336.0380627903821 428.71696824047507L336.0380627903821 428.71696824047507Q336.0380627903821 434.45452320939756 332.66141560771484 439.78029193653134L332.66141560771484 439.78029193653134Q327.33564688058095 448.098374020663 316.5742997618364 453.53395241227383Q305.78550022697254 458.96953080388465 293.54172263778867 461.1382716773051L293.54172263778867 461.1382716773051Q280.88615880681607 463.3070125507256 272.5955291388036 463.3070125507256L272.5955291388036 463.3070125507256Q257.5516051054566 463.3070125507256 242.53513348822878 456.8831471788219Q227.51866187100097 450.4592818069182 223.94984777549894 436.8154309956528L223.94984777549894 436.8154309956528Q231.27964287933773 443.3491060320334 244.12737362314508 446.1218000600773Q256.9751043669524 448.8670416720019 268.64238121763213 448.8670416720019L268.64238121763213 448.8670416720019Q286.0197606211151 448.6748747591672 294.42019995360454 446.1218000600773Q302.8206392860939 443.5412729448681 309.05233774516284 440.0822685138431Q315.2840362042318 436.623264082818 320.5274476830079 431.98380575866537Q325.7434067456647 427.3443474345127 325.7434067456647 421.689149713948Q325.7434067456647 416.0614044095025 318.24889714511045 411.5317557498268L318.24889714511045 411.5317557498268Q317.644943990487 411.1199695080381 306.279643717119 406.5903208483624Q294.91434344375097 402.0332197725675 288.902264313636 396.4878317164797Q282.8627327674018 390.9698960765112 282.8627327674018 383.8597203016264L282.8627327674018 383.8597203016264Q282.8627327674018 370.40803640319564 299.47144451954586 356.46220901461845Q316.08015627168993 342.5438340421605 335.7360862130704 334.8297051126523Q355.39201615445086 327.115576183144 369.22803387855106 327.115576183144L369.22803387855106 327.115576183144Q378.91873676864503 327.115576183144 384.2719579118981 330.57458061416907Q389.59772663903186 334.0335850451941 389.59772663903186 340.15547383978605L389.59772663903186 340.15547383978605Q389.59772663903186 340.9515939072442 389.59772663903186 341.9398808875371L389.59772663903186 341.9398808875371Q388.9937734844085 348.061769682129 368.04757998542345 367.443175462317L368.04757998542345 367.443175462317Q360.33345105591525 374.55335123720187 354.513538838635 383.36557681147997Q348.6936266213547 392.1503499696388 348.6936266213547 398.8761919188542L348.6936266213547 398.8761919188542Q348.6936266213547 399.45269265735834 348.6936266213547 400.05664581198175L348.6936266213547 400.05664581198175Q342.5442854106435 395.30737782335217 342.5442854106435 387.40108198100916L342.5442854106435 387.40108198100916Q342.5442854106435 380.29090620612436 348.6936266213547 370.0237025775262L348.6936266213547 370.0237025775262Q357.58820944399054 354.9797785441791 376.94216280805927 341.5555470618676ZM405.6024852365526 442.9373197902447L405.6024852365526 442.9373197902447Q482.49670278656185 326.31945611568585 523.620422133193 326.31945611568585L523.620422133193 326.31945611568585Q529.9344778406196 326.31945611568585 532.2953856268748 329.69610329835314L532.2953856268748 329.69610329835314Q532.7071718686635 330.27260403685733 532.7071718686635 330.76674752700376Q532.7071718686635 331.26089101715024 531.8012421367284 331.4805103461042Q530.9227648209124 331.6726772589389 529.9344778406196 331.4805103461042Q528.9461908603267 331.26089101715024 528.3422377057034 331.26089101715024L528.3422377057034 331.26089101715024Q516.8945801839776 331.26089101715024 499.9015346061641 343.33995410961865Q482.88103661223124 355.39156478596783 465.9978006988947 373.9768504986977Q449.08711236943896 392.53468379530824 432.6980199462488 413.70049662324726L432.6980199462488 413.70049662324726Q400.85321724792294 454.4124297280897 390.20167979365533 474.17816933394715L390.20167979365533 474.17816933394715Q389.40555972619717 475.55079013990945 388.719249323216 475.55079013990945Q388.0054865041156 475.55079013990945 387.1270091882997 475.05664664976297Q386.24853187248385 474.5625031596166 387.01719952382274 472.9977154408195L387.01719952382274 472.9977154408195Q396.1314016754126 457.7616244946378 396.90006932675146 456.58117060151017L396.90006932675146 456.58117060151017Q384.8484586504023 462.12655865759797 380.3188099907266 462.12655865759797L380.3188099907266 462.12655865759797Q379.7148568361032 462.12655865759797 379.52268992326844 461.71477241580925L379.52268992326844 461.71477241580925Q398.1079756359983 393.13863694993165 398.1079756359983 361.7056204933945L398.1079756359983 361.7056204933945Q398.1079756359983 353.22282391254737 396.1314016754126 345.3988853185621Q394.15482771482687 337.60239914069615 390.20167979365533 334.4453712869828Q386.24853187248385 331.26089101715024 382.0757646223584 331.26089101715024L382.0757646223584 331.26089101715024Q375.3773750892623 331.26089101715024 368.4593662272122 339.2769965239702Q361.54135736516207 347.2931020307901 354.8978726643044 362.19976398354095Q348.281840379566 377.133878352411 348.281840379566 393.74259010455506L348.281840379566 393.74259010455506Q348.281840379566 396.295664803645 348.47400729240076 398.8761919188542Q348.6936266213547 401.4292666179441 347.4857203121079 401.4292666179441L347.4857203121079 401.4292666179441Q347.1013864864384 401.23709970510936 346.717052660769 400.2488127248165L346.717052660769 400.2488127248165Q344.13652554555983 395.30737782335217 344.13652554555983 388.80115520309073L344.13652554555983 388.80115520309073Q344.13652554555983 366.2627215691894 350.2584143401518 354.59544471850967Q356.3803031347437 342.92816786783 365.4945052863335 335.81799209294513L365.4945052863335 335.81799209294513Q378.34223603014084 325.55078846434697 389.40555972619717 325.55078846434697L389.40555972619717 325.55078846434697Q395.71961543362386 325.55078846434697 401.6493373153811 329.2843170565645L401.6493373153811 329.2843170565645Q416.6658089326089 338.97501994665845 416.6658089326089 374.16901741153237L416.6658089326089 374.16901741153237Q416.6658089326089 402.22538668540227 405.6024852365526 442.9373197902447Z " fill="#1c173e" transform="matrix(0.5905643503676802,0,0,0.5905643503676802,0,63.448956617191484)"/><path d="M752.781394036342 338.5699903974891L752.781394036342 338.5699903974891Q751.5085043187489 336.4708389333881 748.2927829269347 336.4708389333881Q745.0770615351205 336.4708389333881 742.263305317283 337.2747692813417Q739.4495490994456 338.0786996292953 735.5862171495576 339.5302405353225L735.5862171495576 339.5302405353225Q729.311094155809 342.09835136906304 725.4477622059211 344.3538226230438L725.4477622059211 344.3538226230438Q710.9770159427571 352.0804865228197 698.4491013538142 362.4422554519989Q685.8988553663169 372.80402438117807 685.2512448082432 377.9625774472134L685.2512448082432 377.9625774472134Q684.9386052284835 381.98222918698116 689.605867526325 384.5503400207217L689.605867526325 384.5503400207217Q693.6255192660929 386.96213106458237 698.9180607234537 389.1282767243461Q704.2329335793688 391.29442238410985 706.6447246232295 392.4333237103774L706.6447246232295 392.4333237103774Q719.5076101904865 398.8647664940059 719.5076101904865 409.472180807282L719.5076101904865 409.472180807282Q719.5076101904865 414.13944310512346 716.7608481683119 418.47173442465095L716.7608481683119 418.47173442465095Q712.4285568487843 425.23814818659343 703.6746486155123 429.65976510033795Q694.898408983686 434.0813820140825 684.9386052284835 435.8455624998695L684.9386052284835 435.8455624998695Q674.6438304949671 437.6097429856565 667.8997481315789 437.6097429856565L667.8997481315789 437.6097429856565Q655.6621417238415 437.6097429856565 643.4468667146582 432.3841957239584Q631.231591705475 427.15864846226026 628.3285098934205 416.05994338079034L628.3285098934205 416.05994338079034Q634.2909933074094 421.3748162367055 644.7420878308056 423.63028749068627Q655.1931823542019 425.8634273461128 664.6840267397647 425.8634273461128L664.6840267397647 425.8634273461128Q678.8198020246148 425.707107556233 685.65320998222 423.63028749068627Q692.4866179398252 421.53113602658533 697.5558454116435 418.7173798087479Q702.6250728834618 415.9036235909104 706.8903700073265 412.12961723523955Q711.1333357326369 408.3556108795687 711.1333357326369 403.75534277739Q711.1333357326369 399.1774060737656 705.0368639273224 395.4927253123118L705.0368639273224 395.4927253123118Q704.5455731591286 395.15775433399784 695.3003741576626 391.473073572544Q686.0551751561968 387.7660614125359 681.1645988728126 383.2551189045743Q676.2516911908742 378.76650779516694 676.2516911908742 372.9826755696122L676.2516911908742 372.9826755696122Q676.2516911908742 362.0402902780221 689.7621873162049 350.69593981245526Q703.2726834415355 339.37392074544266 719.2619648063895 333.09879775169406Q735.2512461712437 326.82367475794547 746.5062710425934 326.82367475794547L746.5062710425934 326.82367475794547Q754.3892547322491 326.82367475794547 758.743877450331 329.6374309757829Q763.0761687698584 332.45118719362034 763.0761687698584 337.43108907122155L763.0761687698584 337.43108907122155Q763.0761687698584 338.0786996292953 763.0761687698584 338.8826299772488L763.0761687698584 338.8826299772488Q762.5848780016646 343.86253185485 745.54602090476 359.62849923416144L745.54602090476 359.62849923416144Q739.2708979110114 365.4123314597162 734.5366414175071 372.58071039563544Q729.8023849240028 379.7267579330004 729.8023849240028 385.1979505787954L729.8023849240028 385.1979505787954Q729.8023849240028 385.666909948435 729.8023849240028 386.1582007166288L729.8023849240028 386.1582007166288Q724.8001516478474 382.2948687667409 724.8001516478474 375.86342598311245L724.8001516478474 375.86342598311245Q724.8001516478474 370.0795937575577 729.8023849240028 361.7276506982624L729.8023849240028 361.7276506982624Q737.0377580555848 349.4900442905249 752.781394036342 338.5699903974891ZM783.4870670484571 406.4127792053476Q781.72288656267 408.51193066944853 779.8693804826661 410.92372171330925Q778.0382058012162 413.3355127571699 775.2244495833788 417.51148428681756Q772.4106933655414 421.68745581646516 772.4106933655414 424.5905376285197Q772.4106933655414 427.47128804202 774.8894786050648 427.47128804202Q777.3905952431426 427.47128804202 783.0181076788175 424.4342178386398L783.0181076788175 424.4342178386398Q794.2731325501672 418.0027750550114 807.9399484653777 405.1398894877545L807.9399484653777 405.1398894877545Q809.5478091612849 403.5320287918474 810.0167685309244 404.64859871956065L810.0167685309244 404.64859871956065Q810.0167685309244 404.8049185094405 810.0167685309244 405.2962092776343Q810.0167685309244 405.7651686472739 809.391489371405 406.4127792053476L809.391489371405 406.4127792053476Q781.72288656267 432.4735213181754 769.1949719737272 432.4735213181754L769.1949719737272 432.4735213181754Q765.487959813719 432.4735213181754 762.9868431756413 429.97240468009767Q760.5080579361179 427.47128804202 760.5080579361179 424.0992468603259L760.5080579361179 424.0992468603259Q760.5080579361179 420.7272056786318 763.3888083496181 413.80447212680946L763.3888083496181 413.80447212680946Q756.1534352180361 422.8263571427327 747.8908177529579 427.7169334261169Q739.6058688893254 432.62984110805525 734.9386065914839 432.62984110805525Q730.2713442936424 432.62984110805525 726.9886287061654 429.81608489021784Q723.6835817201342 427.0023286723804 723.6835817201342 422.8263571427327L723.6835817201342 422.8263571427327Q723.6835817201342 410.92372171330925 734.2909960334102 399.51237705207956L734.2909960334102 399.51237705207956Q742.3302995129458 390.9817828043502 754.2329349423693 387.4534218327762L754.2329349423693 387.4534218327762Q759.5478077982845 385.666909948435 764.5947038715485 385.666909948435Q769.6639313433667 385.666909948435 774.4205192354253 388.48066616627244Q779.1547757289295 391.29442238410985 780.449996845077 395.15775433399784L780.449996845077 395.15775433399784Q785.2735789327983 395.15775433399784 787.350398998345 398.708446704126L787.350398998345 398.708446704126Q787.685369976659 399.1774060737656 787.685369976659 400.31630740003317Q787.685369976659 401.43287732774644 786.4794744547287 402.88441823377366Q785.2735789327983 404.33595913980093 783.4870670484571 406.4127792053476ZM771.7630828074678 390.49049203615635L771.7630828074678 390.49049203615635Q768.3910416257736 390.49049203615635 763.7237793279321 392.5896435002573L763.7237793279321 392.5896435002573Q755.5281560585167 396.1180044718312 748.1141317385005 404.8049185094405L748.1141317385005 404.8049185094405Q736.3901474975112 418.62805421453083 736.3901474975112 425.05949699815926L736.3901474975112 425.05949699815926Q736.3901474975112 428.45386957840765 739.1145781211316 428.45386957840765L739.1145781211316 428.45386957840765Q741.3700493751123 428.45386957840765 746.5955966368106 425.5507877663531Q751.8211438985086 422.6477059542986 760.3517381462381 414.13944310512346L760.3517381462381 414.13944310512346Q760.8206975158776 413.6481523369296 764.0364189076918 410.58875073499524Q767.2521402995061 407.55168053161515 769.5076115534869 405.2962092776343L769.5076115534869 405.2962092776343Q777.0556242648286 397.4132255879786 777.0556242648286 393.9518588120675Q777.0556242648286 390.49049203615635 771.7630828074678 390.49049203615635ZM876.9216385995038 395.3140741238777L876.9216385995038 395.3140741238777Q876.9216385995038 401.27655753786655 866.7831836558673 414.943373453077L866.7831836558673 414.943373453077Q860.6643804519986 423.13899672249244 860.6643804519986 425.05949699815926Q860.6643804519986 427.0023286723804 862.6742063218825 427.0023286723804Q864.6840321917664 427.0023286723804 868.3910443517744 424.5905376285197L868.3910443517744 424.5905376285197Q877.5469177590232 418.3154146347711 886.7251225648264 409.472180807282L886.7251225648264 409.472180807282Q887.9980122824195 408.1769596911346 888.4893030506133 408.8245702492083Q888.9805938188072 409.472180807282 888.9805938188072 409.7848203870417Q888.9805938188072 410.1197913653557 885.429901448679 413.4918325470498Q881.9015404771051 416.86387372874384 877.6362433532404 420.5708858887519Q873.3709462293756 424.2555666502057 866.9395034457472 428.20822419431073Q860.5080606621187 432.1385503398614 856.3320891324711 432.1385503398614L856.3320891324711 432.1385503398614Q847.6451750948618 432.1385503398614 847.6451750948618 424.4342178386398L847.6451750948618 424.4342178386398Q847.6451750948618 421.68745581646516 848.6054252326952 418.0027750550114L848.6054252326952 418.0027750550114Q850.7045766967962 411.7276520612628 866.7831836558673 393.70621342797057L866.7831836558673 393.70621342797057Q868.8823351199683 391.473073572544 868.8823351199683 390.1778524563966Q868.8823351199683 388.8826313402492 865.6666137281541 388.8826313402492Q862.4508923363398 388.8826313402492 855.5281587845175 394.5101437759241L855.5281587845175 394.5101437759241Q853.1163677406569 396.4529754501452 849.5880067690829 400.2269818058161Q846.0373143989547 404.00098816148693 841.3030579054504 412.3752626193365Q836.5464700133919 420.7272056786318 834.3133301579653 427.15864846226026L834.3133301579653 427.15864846226026Q833.3307486215776 430.06173027431475 830.4499982080774 430.06173027431475L830.4499982080774 430.06173027431475Q829.8023876500037 430.06173027431475 828.8421375121702 429.88307908588064L828.8421375121702 429.88307908588064Q825.7827359102359 429.0791487379271 826.4303464683096 427.0023286723804L826.4303464683096 427.0023286723804Q838.9582610572525 404.64859871956065 841.3700521011132 399.0210862838857Q843.7818431449739 393.39357384821085 843.7818431449739 390.9817828043502Q843.7818431449739 388.5699917604895 841.861342869307 388.5699917604895L841.861342869307 388.5699917604895Q833.3307486215776 388.5699917604895 817.4307928509406 416.3949143591043L817.4307928509406 416.3949143591043Q811.6246292268315 425.39446797647327 808.0962682552577 429.2577999263612Q804.5679072836837 433.09880047769485 801.6648254716292 433.09880047769485L801.6648254716292 433.09880047769485Q801.3521858918695 433.09880047769485 801.0172149135554 433.09880047769485L801.0172149135554 433.09880047769485Q796.8412433839078 433.09880047769485 792.82159164414 429.72675929600075L792.82159164414 429.72675929600075Q793.7818417819735 428.27521838997353 797.4888539419816 423.45163630225215L797.4888539419816 423.45163630225215Q805.6844772113969 413.4918325470498 811.8032804152657 404.1573079513668L811.8032804152657 404.1573079513668Q804.8805468634434 411.0800415031891 800.056964775722 414.943373453077L800.056964775722 414.943373453077Q798.4491040798149 416.2162631706702 798.203458695718 415.0996932429569Q797.9578133116211 413.98312331524363 798.9403948480087 413.089867373073Q799.9006449858422 412.19661143090235 802.1561162398231 410.1867855610185Q804.3892560952496 408.1769596911346 805.1261922475403 407.55168053161515Q805.8407970012768 406.9040699735414 807.8506228711608 405.0505638935374Q809.8604487410446 403.1970578135334 810.820698878878 402.0804878858201L810.820698878878 402.0804878858201Q815.3316413868397 396.76561502990495 817.4307928509406 393.08093426845113L817.4307928509406 393.08093426845113Q818.2347231988941 391.13810259423 818.1453976046771 389.284596514226Q818.05607201046 387.4534218327762 817.3414672567235 386.87280547036534Q816.626862502987 386.3145205065087 816.783182292867 385.51059015855515L816.783182292867 385.51059015855515Q816.783182292867 384.237700440962 818.05607201046 384.237700440962L818.05607201046 384.237700440962Q818.7036825685337 384.237700440962 819.5076129164872 384.5503400207217L819.5076129164872 384.5503400207217Q824.4875147940885 386.80581127470253 824.4875147940885 394.35382398604423L824.4875147940885 394.35382398604423Q824.4875147940885 398.8647664940059 822.7233343083014 404.1573079513668L822.7233343083014 404.1573079513668Q825.9390557001158 399.1774060737656 829.6460678601238 394.35382398604423L829.6460678601238 394.35382398604423Q836.2338304336321 385.8455611368691 842.8215930071405 385.8455611368691L842.8215930071405 385.8455611368691Q847.3325355151021 385.8455611368691 847.3325355151021 390.9817828043502L847.3325355151021 390.9817828043502Q847.3325355151021 395.8053648920715 840.5661217531597 408.1769596911346L840.5661217531597 408.1769596911346Q847.3325355151021 399.51237705207956 851.0172162765559 395.4927253123118L851.0172162765559 395.4927253123118Q859.5478105242853 386.64949148482265 867.430794213941 386.64949148482265L867.430794213941 386.64949148482265Q875.7827372732363 386.64949148482265 876.9216385995038 393.8848646164047L876.9216385995038 393.8848646164047Q876.9216385995038 394.68879496435824 876.9216385995038 395.3140741238777ZM922.7456684328565 406.1001396255879L922.7456684328565 406.1001396255879Q931.2539312820318 401.43287732774644 931.2539312820318 396.60929524002506Q931.2539312820318 391.78571315230374 925.470099056477 391.78571315230374L925.470099056477 391.78571315230374Q922.7456684328565 391.78571315230374 919.6862668309222 393.23725405833096L919.6862668309222 393.23725405833096Q912.9198530689798 396.29665566026534 906.6670614737855 403.8446683716071L906.6670614737855 403.8446683716071Q898.9403975740096 413.17919296729 898.9403975740096 421.2184964468256L898.9403975740096 421.2184964468256Q898.9403975740096 424.2555666502057 900.6375838641338 426.91300307816334Q902.3124387557036 429.5704395061209 906.6670614737855 429.5704395061209L906.6670614737855 429.5704395061209Q914.2150741851272 429.5704395061209 925.7827386362367 421.6204616208024Q937.3727344859005 413.6481523369296 945.7246775451958 405.60884885739404L945.7246775451958 405.60884885739404Q947.6675092194168 403.6883485817272 947.6675092194168 405.4525290675142L947.6675092194168 405.4525290675142Q947.6675092194168 406.5690989952275 946.6849276830292 407.37302934318103L946.6849276830292 407.37302934318103Q940.7447756675946 412.8442219889761 938.7349497977107 414.6977280689801Q936.7251239278269 416.5512341489841 930.7849719123922 421.2854906424884Q924.8224884984033 426.042078534547 921.1378077369495 427.9625788102138L921.1378077369495 427.9625788102138Q909.7041316771656 433.9027308256484 901.7541537918471 433.9027308256484Q893.8041759065286 433.9027308256484 889.2039078043499 430.2850442598574Q884.6259711007255 426.66735769406637 884.6259711007255 420.23591491043794L884.6259711007255 420.23591491043794Q884.6259711007255 406.5690989952275 896.8412461099086 396.69862083424215Q909.078852517646 386.80581127470253 922.4106974545427 386.80581127470253L922.4106974545427 386.80581127470253Q931.4102510719115 386.80581127470253 934.469652673846 390.66914322459047L934.469652673846 390.66914322459047Q935.7648737899933 392.5896435002573 935.7648737899933 394.75578916002104Q935.7648737899933 396.9219348197848 934.313332883966 399.51237705207956L934.313332883966 399.51237705207956Q931.4102510719115 404.49227892968077 923.4602731865932 408.26628528535167Q915.5102953012746 412.0402916410225 908.4312419595724 412.0402916410225L908.4312419595724 412.0402916410225Q905.6844799373978 412.0402916410225 905.461165951855 411.5713322713829Q905.2155205677582 411.0800415031891 905.8631311258318 410.83439611909216Q906.4884102853514 410.58875073499524 907.6273116116189 410.58875073499524L907.6273116116189 410.58875073499524Q914.0587543952473 410.58875073499524 922.7456684328565 406.1001396255879ZM977.7255716734583 406.1001396255879L977.7255716734583 406.1001396255879Q986.2561659211876 401.43287732774644 986.2561659211876 396.60929524002506Q986.2561659211876 391.78571315230374 980.4500022970785 391.78571315230374L980.4500022970785 391.78571315230374Q977.7255716734583 391.78571315230374 974.6661700715238 393.23725405833096L974.6661700715238 393.23725405833096Q967.9220877081357 396.29665566026534 961.6469647143871 403.8446683716071L961.6469647143871 403.8446683716071Q953.9203008146112 413.17919296729 953.9203008146112 421.2184964468256L953.9203008146112 421.2184964468256Q953.9203008146112 424.2555666502057 955.6174871047353 426.91300307816334Q957.3146733948596 429.5704395061209 961.6469647143871 429.5704395061209L961.6469647143871 429.5704395061209Q969.1949774257288 429.5704395061209 980.7849732753925 421.6204616208024Q992.352637726502 413.6481523369296 1000.7269121843517 405.60884885739404L1000.7269121843517 405.60884885739404Q1002.6474124600185 403.6883485817272 1002.6474124600185 405.4525290675142L1002.6474124600185 405.4525290675142Q1002.6474124600185 406.5690989952275 1001.687162322185 407.37302934318103L1001.687162322185 407.37302934318103Q995.7246789081962 412.8442219889761 993.7148530383122 414.6977280689801Q991.7050271684284 416.5512341489841 985.7648751529937 421.2854906424884Q979.8247231375592 426.042078534547 976.117710977551 427.9625788102138L976.117710977551 427.9625788102138Q964.7063663163215 433.9027308256484 956.7340570324486 433.9027308256484Q948.7840791471301 433.9027308256484 944.2061424435058 430.2850442598574Q939.6282057398812 426.66735769406637 939.6282057398812 420.23591491043794L939.6282057398812 420.23591491043794Q939.6282057398812 406.5690989952275 951.8434807490645 396.69862083424215Q964.0587557582478 386.80581127470253 977.4129320936985 386.80581127470253L977.4129320936985 386.80581127470253Q986.4124857110676 386.80581127470253 989.4718873130018 390.66914322459047L989.4718873130018 390.66914322459047Q990.744777030595 392.5896435002573 990.744777030595 394.75578916002104Q990.744777030595 396.9219348197848 989.2932361245677 399.51237705207956L989.2932361245677 399.51237705207956Q986.4124857110676 404.49227892968077 978.4401764271947 408.26628528535167Q970.4901985418762 412.0402916410225 963.411145200174 412.0402916410225L963.411145200174 412.0402916410225Q960.6867145765536 412.0402916410225 960.4410691924568 411.5713322713829Q960.1954238083598 411.0800415031891 960.8430343664335 410.83439611909216Q961.4906449245073 410.58875073499524 962.6072148522205 410.58875073499524L962.6072148522205 410.58875073499524Q969.038657635849 410.58875073499524 977.7255716734583 406.1001396255879ZM1039.4718886760022 399.0210862838857L1039.4718886760022 399.0210862838857Q1032.3928353343001 407.21670955330114 1027.9712184205555 414.05011751090643Q1023.5496015068109 420.88352546851166 1023.5496015068109 423.6972816863491Q1023.5496015068109 426.51103790418654 1026.8546484928422 426.51103790418654Q1030.1373640803192 426.51103790418654 1040.3428132196186 419.9232753306782Q1050.5705937574721 413.3355127571699 1059.235176396527 405.1398894877545L1059.235176396527 405.1398894877545Q1060.0391067444807 404.33595913980093 1060.6867173025544 404.49227892968077Q1061.334327860628 404.64859871956065 1061.334327860628 405.2962092776343Q1061.334327860628 405.94381983570804 1060.6867173025544 406.7477501836616L1060.6867173025544 406.7477501836616Q1039.9408480456418 425.707107556233 1029.020794152606 430.5306896439543L1029.020794152606 430.5306896439543Q1024.1972120648848 432.4735213181754 1022.0980606007837 432.4735213181754L1022.0980606007837 432.4735213181754Q1014.3937280995622 432.4735213181754 1011.5799718817246 429.88307908588064Q1008.7662156638872 427.3149682521401 1008.7662156638872 424.2555666502057L1008.7662156638872 424.2555666502057Q1008.7662156638872 418.1590948448913 1011.178006707748 414.943373453077L1011.178006707748 414.943373453077Q1019.0386589988493 403.8446683716071 1023.7059212966908 396.1180044718312L1023.7059212966908 396.1180044718312Q1025.157462202718 393.8848646164047 1023.1476363328342 392.99160867423404Q1021.1378104629503 392.09835273206346 1018.167734455233 392.09835273206346Q1015.1976584475158 392.09835273206346 1015.0190072590815 391.9420329421836L1015.0190072590815 391.9420329421836Q1004.2552731559256 406.4127792053476 993.6478588426495 414.7870536631971L993.6478588426495 414.7870536631971Q992.352637726502 415.9036235909104 992.1963179366223 414.7870536631971L992.1963179366223 414.7870536631971Q992.1963179366223 413.4918325470498 993.9604984224092 411.7276520612628L993.9604984224092 411.7276520612628Q1005.215523293759 402.0804878858201 1012.450896425341 391.29442238410985L1012.450896425341 391.29442238410985Q1010.9993555193137 390.33417224627647 1010.9993555193137 388.65931735470656Q1010.9993555193137 386.96213106458237 1011.2450009034106 384.5503400207217Q1011.4906462875076 382.13854897686105 1013.7461175414883 378.1188972370932L1013.7461175414883 378.1188972370932Q1017.6094494913764 371.3748148737051 1021.785421021024 371.3748148737051L1021.785421021024 371.3748148737051Q1025.3137819925978 371.3748148737051 1025.3137819925978 375.2158154250387L1025.3137819925978 375.2158154250387Q1025.3137819925978 380.53068828095394 1020.3338801149966 386.80581127470253L1020.3338801149966 386.80581127470253Q1017.922089071136 389.68656168820274 1015.8229376070351 390.9817828043502L1015.8229376070351 390.9817828043502Q1021.785421021024 389.0612825286833 1033.1967656822535 389.0612825286833L1033.1967656822535 389.0612825286833Q1038.8242781179285 389.0612825286833 1041.2360691617891 393.23725405833096L1041.2360691617891 393.23725405833096Q1041.548708741549 393.8848646164047 1041.548708741549 395.15775433399784Q1041.548708741549 396.4529754501452 1039.4718886760022 399.0210862838857ZM1104.9028864400002 421.0398452583915L1104.9028864400002 421.0398452583915Q1167.4531337904978 326.17606419987175 1200.9055688247875 326.17606419987175L1200.9055688247875 326.17606419987175Q1206.0417904922683 326.17606419987175 1207.9622907679354 328.9228262220464L1207.9622907679354 328.9228262220464Q1208.2972617462492 329.391785591686 1208.2972617462492 329.79375076566276Q1208.2972617462492 330.1957159396395 1207.5603255939586 330.3743671280737Q1206.845720840222 330.5306869179535 1206.0417904922683 330.3743671280737Q1205.2378601443147 330.1957159396395 1204.746569376121 330.1957159396395L1204.746569376121 330.1957159396395Q1195.4343761789924 330.1957159396395 1181.611240473902 340.0215313035163Q1167.7657733702574 349.8250152688389 1154.0319632593842 364.9433720900766Q1140.2758217499565 380.0393975127601 1126.94397681306 397.2569057980988L1126.94397681306 397.2569057980988Q1101.039554490112 430.3743698540745 1092.3749718510571 446.45297681314565L1092.3749718510571 446.45297681314565Q1091.7273612929835 447.56954674085887 1091.1690763291267 447.56954674085887Q1090.5884599667158 447.56954674085887 1089.8738552129794 447.1675815668821Q1089.159250459243 446.7656163929053 1089.7845296187625 445.4927266753122L1089.7845296187625 445.4927266753122Q1097.1985539387786 433.09880047769485 1097.8238330982979 432.1385503398614L1097.8238330982979 432.1385503398614Q1088.0203491329755 436.64949284782307 1084.3356683715215 436.64949284782307L1084.3356683715215 436.64949284782307Q1083.8443776033278 436.64949284782307 1083.6880578134478 436.31452186950906L1083.6880578134478 436.31452186950906Q1098.8064146346856 380.53068828095394 1098.8064146346856 354.96123693631995L1098.8064146346856 354.96123693631995Q1098.8064146346856 348.0608347830519 1097.1985539387786 341.69638619508623Q1095.5906932428713 335.35426900567484 1092.3749718510571 332.78615817193435Q1089.159250459243 330.1957159396395 1085.7648778789944 330.1957159396395L1085.7648778789944 330.1957159396395Q1080.3160166317539 330.1957159396395 1074.6885041960788 336.7164843174851Q1069.060991760404 343.23725269533054 1063.656793310272 355.3632021102967Q1058.2749262586938 367.51148292381714 1058.2749262586938 381.0219790491478L1058.2749262586938 381.0219790491478Q1058.2749262586938 383.09879911469443 1058.4312460485737 385.1979505787954Q1058.6098972370078 387.2747706443421 1057.62731570062 387.2747706443421L1057.62731570062 387.2747706443421Q1057.3146761208604 387.11845085446225 1057.0020365411006 386.3145205065087L1057.0020365411006 386.3145205065087Q1054.9028850769996 382.2948687667409 1054.9028850769996 377.00232730937995L1054.9028850769996 377.00232730937995Q1054.9028850769996 358.668249096328 1059.8827869546008 349.1774047107652Q1064.8626888322021 339.6865603252024 1072.2767131522182 333.9027280996476L1072.2767131522182 333.9027280996476Q1082.7278076756145 325.55078504035237 1091.7273612929835 325.55078504035237L1091.7273612929835 325.55078504035237Q1096.8635829604646 325.55078504035237 1101.6871650481858 328.5878552437324L1101.6871650481858 328.5878552437324Q1113.9024400573692 336.4708389333881 1113.9024400573692 365.0996918799565L1113.9024400573692 365.0996918799565Q1113.9024400573692 387.9223812024158 1104.9028864400002 421.0398452583915ZM1190.1195033230772 406.4127792053476Q1188.3553228372903 408.51193066944853 1186.5018167572862 410.92372171330925Q1184.648310677282 413.3355127571699 1181.8345544594447 417.51148428681756Q1179.0207982416073 421.68745581646516 1179.0207982416073 424.5905376285197Q1179.0207982416073 427.47128804202 1181.521914879685 427.47128804202Q1184.0230315177628 427.47128804202 1189.6505439534376 424.4342178386398L1189.6505439534376 424.4342178386398Q1200.9055688247875 418.0027750550114 1214.5723847399977 405.1398894877545L1214.5723847399977 405.1398894877545Q1216.180245435905 403.5320287918474 1216.6492048055447 404.64859871956065L1216.6492048055447 404.64859871956065Q1216.6492048055447 404.8049185094405 1216.6492048055447 405.2962092776343Q1216.6492048055447 405.7651686472739 1216.0015942474708 406.4127792053476L1216.0015942474708 406.4127792053476Q1188.3553228372903 432.4735213181754 1175.8050768497928 432.4735213181754L1175.8050768497928 432.4735213181754Q1172.1203960883392 432.4735213181754 1169.6192794502615 429.97240468009767Q1167.1404942107379 427.47128804202 1167.1404942107379 424.0992468603259L1167.1404942107379 424.0992468603259Q1167.1404942107379 420.7272056786318 1170.0212446242383 413.80447212680946L1170.0212446242383 413.80447212680946Q1162.7858714926563 422.8263571427327 1154.5009226290235 427.7169334261169Q1146.2383051639454 432.62984110805525 1141.571042866104 432.62984110805525Q1136.9037805682624 432.62984110805525 1133.5987335822313 429.81608489021784Q1130.3160179947542 427.0023286723804 1130.3160179947542 422.8263571427327L1130.3160179947542 422.8263571427327Q1130.3160179947542 410.92372171330925 1140.9234323080304 399.51237705207956L1140.9234323080304 399.51237705207956Q1148.962735787566 390.9817828043502 1160.8653712169894 387.4534218327762L1160.8653712169894 387.4534218327762Q1166.1579126743504 385.666909948435 1171.2271401461685 385.666909948435Q1176.2963676179868 385.666909948435 1181.030624111491 388.48066616627244Q1185.7872120035497 391.29442238410985 1187.060101721143 395.15775433399784L1187.060101721143 395.15775433399784Q1191.8836838088641 395.15775433399784 1193.982835272965 398.708446704126L1193.982835272965 398.708446704126Q1194.295474852725 399.1774060737656 1194.295474852725 400.31630740003317Q1194.295474852725 401.43287732774644 1193.0895793307945 402.88441823377366Q1191.8836838088641 404.33595913980093 1190.1195033230772 406.4127792053476ZM1178.395519082088 390.49049203615635L1178.395519082088 390.49049203615635Q1175.0011465018395 390.49049203615635 1170.3562156025523 392.5896435002573L1170.3562156025523 392.5896435002573Q1162.1382609345826 396.1180044718312 1154.7465680131206 404.8049185094405L1154.7465680131206 404.8049185094405Q1143.0225837721314 418.62805421453083 1143.0225837721314 425.05949699815926L1143.0225837721314 425.05949699815926Q1143.0225837721314 428.45386957840765 1145.7470143957516 428.45386957840765L1145.7470143957516 428.45386957840765Q1148.0024856497325 428.45386957840765 1153.2280329114305 425.5507877663531Q1158.4535801731286 422.6477059542986 1166.9618430223038 414.13944310512346L1166.9618430223038 414.13944310512346Q1167.4531337904978 413.6481523369296 1170.668855182312 410.58875073499524Q1173.8845765741262 407.55168053161515 1176.140047828107 405.2962092776343L1176.140047828107 405.2962092776343Q1183.6880605394485 397.4132255879786 1183.6880605394485 393.9518588120675Q1183.6880605394485 390.49049203615635 1178.395519082088 390.49049203615635ZM1251.7095005357414 395.15775433399784L1251.7095005357414 395.15775433399784Q1253.9649717897223 392.5896435002573 1253.9649717897223 391.13810259423Q1253.9649717897223 389.68656168820274 1250.9725643834506 389.68656168820274Q1248.0024883757333 389.68656168820274 1241.5710455921048 395.3140741238777L1241.5710455921048 395.3140741238777Q1235.6308935766701 400.472627189913 1227.1896249231577 412.53158240921636Q1218.7483562696457 424.5905376285197 1214.9743499139745 428.8558347523844Q1211.1780121597494 433.09880047769485 1208.2972617462492 433.09880047769485L1208.2972617462492 433.09880047769485Q1207.9622907679354 433.09880047769485 1207.6496511881755 433.09880047769485L1207.6496511881755 433.09880047769485Q1203.473679658528 433.09880047769485 1199.45402791876 429.72675929600075L1199.45402791876 429.72675929600075Q1200.4142780565935 428.27521838997353 1204.1212902166017 423.45163630225215L1204.1212902166017 423.45163630225215Q1212.316913486017 413.4918325470498 1218.4133852913315 404.1573079513668L1218.4133852913315 404.1573079513668Q1211.5129831380636 411.0800415031891 1206.6894010503422 414.943373453077L1206.6894010503422 414.943373453077Q1205.081540354435 416.2162631706702 1204.8358949703381 415.0996932429569Q1204.5902495862413 413.98312331524363 1205.5504997240746 413.089867373073Q1206.533081260462 412.19661143090235 1208.7662211158888 410.1867855610185Q1211.0216923698697 408.1769596911346 1211.7586285221605 407.55168053161515Q1212.4732332758967 406.9040699735414 1214.4830591457808 405.0505638935374Q1216.4928850156648 403.1970578135334 1217.4531351534981 402.0804878858201L1217.4531351534981 402.0804878858201Q1221.9640776614597 396.76561502990495 1224.0408977270063 393.08093426845113L1224.0408977270063 393.08093426845113Q1224.8448280749599 391.13810259423 1224.7778338792973 389.284596514226Q1224.6885082850802 387.4534218327762 1223.9739035313437 386.87280547036534Q1223.2369673790529 386.3145205065087 1223.415618567487 385.51059015855515L1223.415618567487 385.51059015855515Q1223.415618567487 384.237700440962 1224.6885082850802 384.237700440962L1224.6885082850802 384.237700440962Q1225.3361188431538 384.237700440962 1226.1400491911072 384.5503400207217L1226.1400491911072 384.5503400207217Q1231.1199510687088 386.80581127470253 1231.1199510687088 393.4828994424279Q1231.1199510687088 400.137656211599 1228.2392006552082 407.70800032149504L1228.2392006552082 407.70800032149504Q1234.4919922504027 399.51237705207956 1237.707713642217 395.96168468195134L1237.707713642217 395.96168468195134Q1246.0819881000666 386.64949148482265 1254.121291579602 386.64949148482265L1254.121291579602 386.64949148482265Q1262.0042752692577 386.64949148482265 1263.4334847767307 393.39357384821085L1263.4334847767307 393.39357384821085Q1263.6121359651647 394.35382398604423 1263.6121359651647 396.36364985592814Q1263.6121359651647 398.37347572581206 1262.0712694649205 401.7455169075061Q1260.5527343632305 405.1398894877545 1254.9252219275554 412.8442219889761Q1249.2977094918806 420.5708858887519 1248.40445354971 422.5807117586358Q1247.5335290060937 424.5905376285197 1247.8461685858533 425.5507877663531Q1248.1588081656132 426.51103790418654 1249.2977094918806 426.66735769406637L1249.2977094918806 426.66735769406637Q1251.2182097675477 427.0023286723804 1255.885472065389 424.0992468603259L1255.885472065389 424.0992468603259Q1262.4732346388973 419.4319845624844 1272.9243291622936 409.7848203870417L1272.9243291622936 409.7848203870417Q1274.6885096480805 408.0206399012547 1274.6885096480805 410.1197913653557L1274.6885096480805 410.1197913653557Q1274.6885096480805 410.92372171330925 1273.884579300127 411.7276520612628L1273.884579300127 411.7276520612628Q1258.2972631092496 426.1983983244268 1250.7492503979079 429.72675929600075L1250.7492503979079 429.72675929600075Q1241.9060165704188 434.2377018039624 1236.9037832942633 431.178300202028L1236.9037832942633 431.178300202028Q1233.8667130908832 429.2577999263612 1233.8667130908832 425.79643315045007Q1233.8667130908832 422.3350663745389 1235.1396028084764 418.80670540296495L1235.1396028084764 418.80670540296495Q1238.042684620531 410.58875073499524 1251.7095005357414 395.15775433399784ZM1290.9457677955857 382.13854897686105Q1289.1592559112446 380.68700807083377 1289.4942268895586 377.9625774472134Q1289.8068664693183 375.2158154250387 1292.3749773030586 372.17874522165863Q1294.9654195353537 369.11934361972425 1299.2977108548812 369.11934361972425L1299.2977108548812 369.11934361972425Q1300.5929319710285 369.11934361972425 1301.8658216886215 370.2359135474375Q1303.161042804769 371.3748148737051 1303.161042804769 372.64770459129824Q1303.161042804769 373.9429257074456 1303.0047230148894 375.55078640335273Q1302.826071826455 377.15864709925984 1300.5929319710285 379.6374323387833Q1298.3374607170476 382.13854897686105 1295.5237044992102 382.8531537305975Q1292.7099482813728 383.5900898828883 1290.9457677955857 382.13854897686105ZM1290.7671166071518 397.4132255879786L1290.7671166071518 397.4132255879786Q1290.7671166071518 406.5690989952275 1281.2986036201432 425.5507877663531Q1271.8077592345803 444.5324765374788 1263.2101707911881 453.59902435051055Q1254.5902509492416 462.6879035620966 1241.7273653819848 469.1193463457251Q1228.8644798147277 475.5507891293535 1216.6492048055447 475.5507891293535Q1204.433929796361 475.5507891293535 1196.081986737066 469.9232766936786L1196.081986737066 469.9232766936786Q1185.9435317934294 463.02287454041056 1185.9435317934294 452.0804892488205L1185.9435317934294 452.0804892488205Q1185.9435317934294 451.276558900867 1186.6581365471661 451.365884495084Q1187.3950726994567 451.4328786907468 1187.5513924893366 452.39312882858025L1187.5513924893366 452.39312882858025Q1189.1592531852439 461.41501384450345 1196.081986737066 467.0425262801784Q1202.982388890334 472.6700387158533 1213.0315182397535 472.6700387158533Q1223.0806475891732 472.6700387158533 1237.707713642217 461.3256882502864Q1252.357111093815 449.9813377847195 1263.7684557550447 434.0813820140825L1263.7684557550447 434.0813820140825Q1275.6710911844682 418.1590948448913 1282.1025339680966 403.6883485817272L1282.1025339680966 403.6883485817272Q1279.3557719459218 407.21670955330114 1273.5719397203673 411.88397185114263L1273.5719397203673 411.88397185114263Q1273.2593001406076 412.19661143090235 1272.7680093724136 411.88397185114263L1272.7680093724136 411.88397185114263Q1271.6514394447004 411.0800415031891 1272.455369792654 409.9634715754758L1272.455369792654 409.9634715754758Q1283.7103946640036 400.94158655955255 1284.983284381597 393.23725405833096L1284.983284381597 393.23725405833096Q1284.983284381597 390.66914322459047 1283.0627841059302 390.02153266651675L1283.0627841059302 390.02153266651675Q1282.2588537579766 389.5302418983229 1282.9064643160502 388.8826313402492L1282.9064643160502 388.8826313402492Q1283.5317434755698 388.41367197060964 1284.5143250119572 388.41367197060964L1284.5143250119572 388.41367197060964Q1289.0029361213647 388.41367197060964 1290.454477027392 394.0411844062846L1290.454477027392 394.0411844062846Q1290.7671166071518 395.4927253123118 1290.7671166071518 397.4132255879786ZM1356.3767655595836 406.4127792053476Q1354.6125850737967 408.51193066944853 1352.7590789937926 410.92372171330925Q1350.9055729137885 413.3355127571699 1348.0918166959514 417.51148428681756Q1345.2780604781137 421.68745581646516 1345.2780604781137 424.5905376285197Q1345.2780604781137 427.47128804202 1347.7791771161915 427.47128804202Q1350.2579623557149 427.47128804202 1355.88547479139 424.4342178386398L1355.88547479139 424.4342178386398Q1367.1404996627398 418.0027750550114 1380.80731557795 405.1398894877545L1380.80731557795 405.1398894877545Q1382.4151762738572 403.5320287918474 1382.9064670420512 404.64859871956065L1382.9064670420512 404.64859871956065Q1382.9064670420512 404.8049185094405 1382.9064670420512 405.2962092776343Q1382.9064670420512 405.7651686472739 1382.2588564839773 406.4127792053476L1382.2588564839773 406.4127792053476Q1354.6125850737967 432.4735213181754 1342.0623390862993 432.4735213181754L1342.0623390862993 432.4735213181754Q1338.3776583248457 432.4735213181754 1335.8765416867677 429.97240468009767Q1333.3754250486902 427.47128804202 1333.3754250486902 424.0992468603259L1333.3754250486902 424.0992468603259Q1333.3754250486902 420.7272056786318 1336.2785068607448 413.80447212680946L1336.2785068607448 413.80447212680946Q1329.0431337291625 422.8263571427327 1320.7581848655302 427.7169334261169Q1312.4732360018977 432.62984110805525 1307.8283051026106 432.62984110805525Q1303.161042804769 432.62984110805525 1299.8559958187377 429.81608489021784Q1296.5732802312607 427.0023286723804 1296.5732802312607 422.8263571427327L1296.5732802312607 422.8263571427327Q1296.5732802312607 410.92372171330925 1307.180694544537 399.51237705207956L1307.180694544537 399.51237705207956Q1315.2199980240723 390.9817828043502 1327.1226334534958 387.4534218327762L1327.1226334534958 387.4534218327762Q1332.4151749108569 385.666909948435 1337.484402382675 385.666909948435Q1342.5536298544932 385.666909948435 1347.2878863479975 388.48066616627244Q1352.0444742400562 391.29442238410985 1353.3173639576494 395.15775433399784L1353.3173639576494 395.15775433399784Q1358.1409460453706 395.15775433399784 1360.2400975094715 398.708446704126L1360.2400975094715 398.708446704126Q1360.5527370892314 399.1774060737656 1360.5527370892314 400.31630740003317Q1360.5527370892314 401.43287732774644 1359.346841567301 402.88441823377366Q1358.1409460453706 404.33595913980093 1356.3767655595836 406.4127792053476ZM1344.63044992004 390.49049203615635L1344.63044992004 390.49049203615635Q1341.258408738346 390.49049203615635 1336.5911464405044 392.5896435002573L1336.5911464405044 392.5896435002573Q1328.3955231710888 396.1180044718312 1321.0038302496273 404.8049185094405L1321.0038302496273 404.8049185094405Q1309.2575146100835 418.62805421453083 1309.2575146100835 425.05949699815926L1309.2575146100835 425.05949699815926Q1309.2575146100835 428.45386957840765 1312.004276632258 428.45386957840765L1312.004276632258 428.45386957840765Q1314.259747886239 428.45386957840765 1319.4852951479372 425.5507877663531Q1324.710842409635 422.6477059542986 1333.2191052588103 414.13944310512346L1333.2191052588103 414.13944310512346Q1333.7103960270042 413.6481523369296 1336.9261174188184 410.58875073499524Q1340.1418388106326 407.55168053161515 1342.3973100646135 405.2962092776343L1342.3973100646135 405.2962092776343Q1349.945322775955 397.4132255879786 1349.945322775955 393.9518588120675Q1349.945322775955 390.49049203615635 1344.63044992004 390.49049203615635ZM1419.083332699961 399.0210862838857L1419.083332699961 399.0210862838857Q1412.0042793582588 407.21670955330114 1407.5826624445144 414.05011751090643Q1403.16104553077 420.88352546851166 1403.16104553077 423.6972816863491Q1403.16104553077 426.51103790418654 1406.466092516801 426.51103790418654Q1409.748808104278 426.51103790418654 1419.976588642132 419.9232753306782Q1430.182037781431 413.3355127571699 1438.8689518190404 405.1398894877545L1438.8689518190404 405.1398894877545Q1439.672882166994 404.33595913980093 1440.2981613265133 404.49227892968077Q1440.945771884587 404.64859871956065 1440.945771884587 405.2962092776343Q1440.945771884587 405.94381983570804 1440.2981613265133 406.7477501836616L1440.2981613265133 406.7477501836616Q1419.5746234681549 425.707107556233 1408.632238176565 430.5306896439543L1408.632238176565 430.5306896439543Q1403.8086560888435 432.4735213181754 1401.7095046247427 432.4735213181754L1401.7095046247427 432.4735213181754Q1394.0051721235209 432.4735213181754 1391.1914159056835 429.88307908588064Q1388.377659687846 427.3149682521401 1388.377659687846 424.2555666502057L1388.377659687846 424.2555666502057Q1388.377659687846 418.1590948448913 1390.789450731707 414.943373453077L1390.789450731707 414.943373453077Q1398.6724344213624 403.8446683716071 1403.3173653206495 396.1180044718312L1403.3173653206495 396.1180044718312Q1404.768906226677 393.8848646164047 1402.759080356793 392.99160867423404Q1400.7492544869092 392.09835273206346 1397.7791784791918 392.09835273206346Q1394.8091024714745 392.09835273206346 1394.6527826815945 391.9420329421836L1394.6527826815945 391.9420329421836Q1383.8667171798845 406.4127792053476 1373.2593028666083 414.7870536631971L1373.2593028666083 414.7870536631971Q1371.964081750461 415.9036235909104 1371.807761960581 414.7870536631971L1371.807761960581 414.7870536631971Q1371.807761960581 413.4918325470498 1373.571942446368 411.7276520612628L1373.571942446368 411.7276520612628Q1384.8269673177178 402.0804878858201 1392.0623404492999 391.29442238410985L1392.0623404492999 391.29442238410985Q1390.6331309418267 390.33417224627647 1390.6331309418267 388.65931735470656Q1390.6331309418267 386.96213106458237 1390.8564449273695 384.5503400207217Q1391.1020903114663 382.13854897686105 1393.3575615654472 378.1188972370932L1393.3575615654472 378.1188972370932Q1397.2208935153353 371.3748148737051 1401.3968650449829 371.3748148737051L1401.3968650449829 371.3748148737051Q1404.9252260165567 371.3748148737051 1404.9252260165567 375.2158154250387L1404.9252260165567 375.2158154250387Q1404.9252260165567 380.53068828095394 1399.9453241389556 386.80581127470253L1399.9453241389556 386.80581127470253Q1397.5335330950948 389.68656168820274 1395.4567130295482 390.9817828043502L1395.4567130295482 390.9817828043502Q1401.3968650449829 389.0612825286833 1412.8082097062124 389.0612825286833L1412.8082097062124 389.0612825286833Q1418.4357221418875 389.0612825286833 1420.847513185748 393.23725405833096L1420.847513185748 393.23725405833096Q1421.182484164062 393.8848646164047 1421.182484164062 395.15775433399784Q1421.182484164062 396.4529754501452 1419.083332699961 399.0210862838857ZM1465.3986533015077 382.13854897686105Q1463.6121414171664 380.68700807083377 1463.9471123954804 377.9625774472134Q1464.2597519752403 375.2158154250387 1466.8278628089806 372.17874522165863Q1469.4183050412753 369.11934361972425 1473.750596360803 369.11934361972425L1473.750596360803 369.11934361972425Q1475.0458174769506 369.11934361972425 1476.4750269844235 370.3252391416546Q1477.9265678904505 371.53113466358496 1477.6139283106909 374.3448908814224Q1477.278957332377 377.15864709925984 1475.0458174769506 379.6374323387833Q1472.7903462229694 382.13854897686105 1469.976590005132 382.8531537305975Q1467.1628337872946 383.5900898828883 1465.3986533015077 382.13854897686105ZM1463.2995018374068 390.66914322459047L1463.2995018374068 390.66914322459047Q1456.7117392638984 397.4132255879786 1452.2901223501538 407.7749945171578Q1447.8685054364094 418.1590948448913 1447.8685054364094 422.3350663745389Q1447.8685054364094 426.51103790418654 1451.1512210238864 426.51103790418654Q1454.4562680099175 426.51103790418654 1462.0936063154763 421.68745581646516Q1469.7309446210352 416.86387372874384 1479.5344285863578 408.0206399012547L1479.5344285863578 408.0206399012547Q1481.6335800504585 406.1001396255879 1481.6335800504585 408.51193066944853L1481.6335800504585 408.51193066944853Q1481.6335800504585 408.8245702492083 1481.2986090721447 409.15954122752225L1481.2986090721447 409.15954122752225Q1473.5942765709233 415.9036235909104 1468.279403715008 420.23591491043794Q1462.9868622576469 424.5905376285197 1455.662163531848 428.52086377407045Q1448.337464806049 432.4735213181754 1443.6925339067616 432.4735213181754L1443.6925339067616 432.4735213181754Q1437.8863702826525 432.4735213181754 1435.0726140648153 429.88307908588064Q1432.2588578469777 427.3149682521401 1432.2588578469777 424.2555666502057L1432.2588578469777 424.2555666502057Q1432.2588578469777 418.47173442465095 1434.3580093110786 415.0996932429569Q1436.4571607751795 411.7276520612628 1441.4370626527807 405.7651686472739L1441.4370626527807 405.7651686472739Q1439.672882166994 407.21670955330114 1435.8765444127687 410.58875073499524Q1432.1025380570977 413.98312331524363 1430.6509971510704 415.0996932429569Q1429.2217876435975 416.2162631706702 1429.2217876435975 414.4520826848832L1429.2217876435975 414.4520826848832Q1429.2217876435975 413.3355127571699 1431.789898477338 411.23636129306897Q1434.3580093110786 409.15954122752225 1442.9555977544708 400.62894697979283Q1451.5531861978632 392.09835273206346 1454.7019133940146 390.49049203615635Q1457.8283091916117 388.8826313402492 1459.8381350614954 388.8826313402492Q1461.8479609313795 388.8826313402492 1462.808211069213 389.4632477026601Q1463.7907926056005 390.02153266651675 1463.2995018374068 390.66914322459047Z " fill="#ffffff" transform="matrix(0.5905643503676802,0,0,0.5905643503676802,0,63.448956617191484)"/></g></svg>